<mxfile host="65bd71144e">
    <diagram name="Página-1" id="UM7KmXvlQZvRodMDoZGP">
        <mxGraphModel dx="1130" dy="787" grid="1" gridSize="10" guides="1" tooltips="1" connect="1" arrows="1" fold="1" page="1" pageScale="1" pageWidth="827" pageHeight="1169" math="0" shadow="0">
            <root>
                <mxCell id="0"/>
                <mxCell id="1" parent="0"/>
                <mxCell id="phdum09Gdtg03mPAm3mA-1" value="Main" style="rounded=0;whiteSpace=wrap;html=1;" parent="1" vertex="1">
                    <mxGeometry x="40" y="40" width="760" height="2270" as="geometry"/>
                </mxCell>
                <mxCell id="phdum09Gdtg03mPAm3mA-3" value="Header" style="rounded=0;whiteSpace=wrap;html=1;" parent="1" vertex="1">
                    <mxGeometry x="40" width="760" height="260" as="geometry"/>
                </mxCell>
                <mxCell id="phdum09Gdtg03mPAm3mA-6" value="Home" style="rounded=0;whiteSpace=wrap;html=1;" parent="1" vertex="1">
                    <mxGeometry x="40" y="260" width="380" height="50" as="geometry"/>
                </mxCell>
                <mxCell id="phdum09Gdtg03mPAm3mA-12" value="Projetos" style="rounded=0;whiteSpace=wrap;html=1;" parent="1" vertex="1">
                    <mxGeometry x="420" y="260" width="380" height="50" as="geometry"/>
                </mxCell>
                <mxCell id="phdum09Gdtg03mPAm3mA-13" value="Footer" style="rounded=0;whiteSpace=wrap;html=1;" parent="1" vertex="1">
                    <mxGeometry x="40" y="2220" width="760" height="100" as="geometry"/>
                </mxCell>
                <mxCell id="phdum09Gdtg03mPAm3mA-18" value="Foto" style="ellipse;whiteSpace=wrap;html=1;aspect=fixed;" parent="1" vertex="1">
                    <mxGeometry x="60" y="15" width="230" height="230" as="geometry"/>
                </mxCell>
                <mxCell id="phdum09Gdtg03mPAm3mA-19" value="Redes Sociais" style="ellipse;whiteSpace=wrap;html=1;aspect=fixed;" parent="1" vertex="1">
                    <mxGeometry x="70" y="2230" width="80" height="80" as="geometry"/>
                </mxCell>
                <mxCell id="phdum09Gdtg03mPAm3mA-20" value="Linkedin" style="ellipse;whiteSpace=wrap;html=1;aspect=fixed;" parent="1" vertex="1">
                    <mxGeometry x="190" y="2230" width="80" height="80" as="geometry"/>
                </mxCell>
                <mxCell id="phdum09Gdtg03mPAm3mA-21" value="GitHub Link" style="ellipse;whiteSpace=wrap;html=1;aspect=fixed;" parent="1" vertex="1">
                    <mxGeometry x="690" y="2230" width="80" height="80" as="geometry"/>
                </mxCell>
                <mxCell id="phdum09Gdtg03mPAm3mA-22" value="Site Uvv" style="ellipse;whiteSpace=wrap;html=1;aspect=fixed;" parent="1" vertex="1">
                    <mxGeometry x="560" y="2230" width="80" height="80" as="geometry"/>
                </mxCell>
                <mxCell id="phdum09Gdtg03mPAm3mA-23" value="Contatos" style="rounded=0;whiteSpace=wrap;html=1;" parent="1" vertex="1">
                    <mxGeometry x="297" y="2240" width="246" height="20" as="geometry"/>
                </mxCell>
                <mxCell id="phdum09Gdtg03mPAm3mA-26" value="Versão da Página" style="rounded=0;whiteSpace=wrap;html=1;" parent="1" vertex="1">
                    <mxGeometry x="350" y="2290" width="140" height="20" as="geometry"/>
                </mxCell>
                <mxCell id="4" value="Sobre Mim" style="rounded=0;whiteSpace=wrap;html=1;" vertex="1" parent="1">
                    <mxGeometry x="140" y="640" width="560" height="270" as="geometry"/>
                </mxCell>
                <mxCell id="5" value="Sobre Mim" style="rounded=0;whiteSpace=wrap;html=1;" vertex="1" parent="1">
                    <mxGeometry x="140" y="450" width="560" height="140" as="geometry"/>
                </mxCell>
                <mxCell id="9" value="" style="shape=offPageConnector;whiteSpace=wrap;html=1;rotation=-180;" vertex="1" parent="1">
                    <mxGeometry x="60" y="270" width="30" height="30" as="geometry"/>
                </mxCell>
                <mxCell id="10" value="Experiências" style="rounded=0;whiteSpace=wrap;html=1;" vertex="1" parent="1">
                    <mxGeometry x="140" y="1080" width="560" height="370" as="geometry"/>
                </mxCell>
                <mxCell id="11" value="Main" style="rounded=0;whiteSpace=wrap;html=1;" vertex="1" parent="1">
                    <mxGeometry x="360" y="940" width="120" height="30" as="geometry"/>
                </mxCell>
                <mxCell id="13" value="" style="shape=crossbar;whiteSpace=wrap;html=1;rounded=1;" vertex="1" parent="1">
                    <mxGeometry x="40" y="970" width="760" height="20" as="geometry"/>
                </mxCell>
                <mxCell id="21" value="Portólio Online" style="text;html=1;strokeColor=none;fillColor=none;align=center;verticalAlign=middle;whiteSpace=wrap;rounded=0;fontSize=30;" vertex="1" parent="1">
                    <mxGeometry x="310" y="160" width="460" height="70" as="geometry"/>
                </mxCell>
                <mxCell id="22" value="Teo Giambarba" style="text;html=1;strokeColor=none;fillColor=none;align=center;verticalAlign=middle;whiteSpace=wrap;rounded=0;fontSize=30;" vertex="1" parent="1">
                    <mxGeometry x="310" y="20" width="460" height="70" as="geometry"/>
                </mxCell>
                <mxCell id="24" value="" style="line;strokeWidth=2;html=1;fontSize=30;" vertex="1" parent="1">
                    <mxGeometry x="460" y="120" width="160" height="10" as="geometry"/>
                </mxCell>
                <mxCell id="25" value="&lt;font style=&quot;font-size: 12px;&quot;&gt;Habilidades&lt;/font&gt;" style="rounded=0;whiteSpace=wrap;html=1;fontSize=30;" vertex="1" parent="1">
                    <mxGeometry x="140" y="1650" width="560" height="280" as="geometry"/>
                </mxCell>
                <mxCell id="26" value="" style="shape=crossbar;whiteSpace=wrap;html=1;rounded=1;" vertex="1" parent="1">
                    <mxGeometry x="40" y="1530" width="760" height="20" as="geometry"/>
                </mxCell>
                <mxCell id="28" value="&lt;h1&gt;Habilidades&lt;/h1&gt;" style="text;html=1;strokeColor=none;fillColor=none;spacing=5;spacingTop=-20;whiteSpace=wrap;overflow=hidden;rounded=0;fontSize=12;align=center;" vertex="1" parent="1">
                    <mxGeometry x="272.5" y="1570" width="295" height="40" as="geometry"/>
                </mxCell>
                <mxCell id="29" value="&lt;h1&gt;Experiências&lt;/h1&gt;" style="text;html=1;strokeColor=none;fillColor=none;spacing=5;spacingTop=-20;whiteSpace=wrap;overflow=hidden;rounded=0;fontSize=12;" vertex="1" parent="1">
                    <mxGeometry x="342.5" y="1010" width="155" height="40" as="geometry"/>
                </mxCell>
                <mxCell id="30" value="&lt;h1&gt;&lt;font style=&quot;font-size: 36px;&quot;&gt;Olá!&lt;/font&gt;&lt;/h1&gt;" style="text;html=1;strokeColor=none;fillColor=none;spacing=5;spacingTop=-20;whiteSpace=wrap;overflow=hidden;rounded=0;fontSize=12;align=left;" vertex="1" parent="1">
                    <mxGeometry x="379.5" y="330" width="81" height="50" as="geometry"/>
                </mxCell>
                <mxCell id="31" value="&lt;h1&gt;Sobre Mim&lt;/h1&gt;" style="text;html=1;strokeColor=none;fillColor=none;spacing=5;spacingTop=-20;whiteSpace=wrap;overflow=hidden;rounded=0;fontSize=12;" vertex="1" parent="1">
                    <mxGeometry x="350" y="400" width="140" height="40" as="geometry"/>
                </mxCell>
                <mxCell id="32" value="" style="rounded=0;whiteSpace=wrap;html=1;fontSize=36;" vertex="1" parent="1">
                    <mxGeometry x="430" y="270" width="10" height="20" as="geometry"/>
                </mxCell>
                <mxCell id="33" value="" style="triangle;whiteSpace=wrap;html=1;fontSize=36;rotation=-35;" vertex="1" parent="1">
                    <mxGeometry x="430" y="285" width="10" height="15" as="geometry"/>
                </mxCell>
                <mxCell id="34" value="&lt;font style=&quot;font-size: 12px;&quot;&gt;Habilidades&lt;/font&gt;" style="rounded=0;whiteSpace=wrap;html=1;fontSize=30;" vertex="1" parent="1">
                    <mxGeometry x="140" y="1980" width="560" height="210" as="geometry"/>
                </mxCell>
            </root>
        </mxGraphModel>
    </diagram>
</mxfile>